<?xml version="1.0" encoding="UTF-8" standalone="no"?>
<!-- Created with Inkscape (http://www.inkscape.org/) -->

<svg
   width="48"
   height="48"
   viewBox="0 0 12.7 12.7"
   version="1.1"
   id="svg5"
   inkscape:version="1.2.2 (b0a8486541, 2022-12-01)"
   sodipodi:docname="classMate.svg"
   inkscape:export-filename="classMate-plain.svg"
   inkscape:export-xdpi="1600"
   inkscape:export-ydpi="1600"
   xmlns:inkscape="http://www.inkscape.org/namespaces/inkscape"
   xmlns:sodipodi="http://sodipodi.sourceforge.net/DTD/sodipodi-0.dtd"
   xmlns="http://www.w3.org/2000/svg"
   xmlns:svg="http://www.w3.org/2000/svg">
  <sodipodi:namedview
     id="namedview7"
     pagecolor="#ffffff"
     bordercolor="#000000"
     borderopacity="0.25"
     inkscape:showpageshadow="2"
     inkscape:pageopacity="0.0"
     inkscape:pagecheckerboard="0"
     inkscape:deskcolor="#d1d1d1"
     inkscape:document-units="mm"
     showgrid="false"
     inkscape:zoom="12.316682"
     inkscape:cx="5.1150141"
     inkscape:cy="32.313898"
     inkscape:window-width="1920"
     inkscape:window-height="1007"
     inkscape:window-x="0"
     inkscape:window-y="0"
     inkscape:window-maximized="1"
     inkscape:current-layer="layer1" />
  <defs
     id="defs2" />
  <g
     inkscape:label="Layer 1"
     inkscape:groupmode="layer"
     id="layer1">
    <g
       id="g533"
       transform="matrix(0,0.55286005,-0.55286005,0,6.1481819,2.8362314)"
       style="fill:#1a5d8f;fill-opacity:1">
      <rect
         style="fill:#1a5d8f;fill-opacity:1;stroke-width:0.0242826"
         id="rect3040"
         width="1.300703"
         height="6.3187108"
         x="-7.5089788"
         y="3.8019843"
         transform="matrix(-0.00169845,-0.99999856,0.99999625,-0.00273916,0,0)" />
      <rect
         style="fill:#1a5d8f;fill-opacity:1;stroke-width:0.00591773"
         id="rect6834"
         width="1.3007106"
         height="0.37526736"
         x="-7.5031343"
         y="3.113575"
         transform="matrix(-0.00380449,-0.99999276,0.99999925,-0.00122284,0,0)" />
      <rect
         style="fill:#1a5d8f;fill-opacity:1;stroke-width:0.0124095"
         id="rect6888"
         width="1.3007026"
         height="1.6502168"
         x="-7.5081954"
         y="1.1476949"
         transform="matrix(-0.00149822,-0.99999888,0.99999518,-0.00310523,0,0)" />
      <path
         id="rect9068"
         style="fill:#1a5d8f;fill-opacity:1;stroke-width:0.013635"
         d="M 10.5402,7.4000614 10.5377,6.2610798 c 2.59217,0.6962583 2.614377,0.3759614 0.0025,1.1389816 z"
         sodipodi:nodetypes="ccc" />
      <rect
         style="fill:#1a5d8f;fill-opacity:1;stroke-width:0.00807733"
         id="rect10619"
         width="1.9203178"
         height="0.47356138"
         x="-7.5063305"
         y="1.1010832"
         transform="matrix(-0.00306268,-0.99999531,0.99999885,-0.00151904,0,0)" />
      <rect
         style="fill:#1a5d8f;fill-opacity:1;stroke-width:0.0104676"
         id="rect10621"
         width="0.35267237"
         height="4.330389"
         x="-5.8660378"
         y="1.1083106"
         transform="matrix(-0.00198237,-0.99999804,0.99999725,-0.00234685,0,0)" />
      <rect
         style="fill:#1a5d8f;fill-opacity:1;stroke-width:0.00636911"
         id="rect12095"
         width="0.8584004"
         height="0.65867966"
         x="-7.2854609"
         y="0.1902602"
         transform="matrix(-0.00216864,-0.99999765,0.99999786,-0.00206642,0,0)" />
    </g>
    <g
       aria-label="c ass"
       id="text2638"
       style="font-weight:bold;font-size:21.823px;font-family:'DejaVu Serif';-inkscape-font-specification:'DejaVu Serif, Bold';fill:#1a5d8f;stroke-width:0.264999">
      <path
         d="m 1.6330341,9.040051 c 0,-0.034925 -0.0127,-0.180975 -0.01905,-0.22225 0,-0.00953 -0.00635,-0.041275 -0.0381,-0.041275 -0.0127,0 -0.01905,0 -0.0508,0.03175 -0.053975,0.047625 -0.2032,0.1778 -0.46355,0.1778 -0.33020003,0 -0.33020003,-0.320675 -0.33020003,-0.5238749 0,-0.257175 0.015875,-0.523875 0.33972503,-0.523875 0.206375,0 0.2921,0.0508 0.4064,0.14605 0.0381,0.034925 0.04445,0.034925 0.05715,0.034925 0.03175,0 0.0381,-0.028575 0.041275,-0.041275 0.00635,-0.0254 0.0381,-0.2032 0.0381,-0.219075 0,-0.028575 -0.022225,-0.041275 -0.0762,-0.066675 -0.1524,-0.06985 -0.24765,-0.1016 -0.4699,-0.1016 -0.47307503,0 -0.76835002,0.22225 -0.76835002,0.777875 0,0.5270499 0.27304999,0.7651749 0.75247502,0.7651749 0.085725,0 0.276225,-0.00318 0.48895,-0.111125 0.0889,-0.047625 0.092075,-0.0508 0.092075,-0.08255 z"
         style="font-size:3.175px;font-family:'Latin Modern Sans';-inkscape-font-specification:'Latin Modern Sans, Bold';stroke-width:0.265"
         id="path309" />
      <path
         d="M 4.4048118,9.046401 V 8.1955011 c 0,-0.50165 -0.4826,-0.504825 -0.64135,-0.504825 -0.149225,0 -0.307975,0.0127 -0.5207,0.1016 -0.066675,0.028575 -0.08255,0.0381 -0.08255,0.073025 0,0.022225 0.01905,0.206375 0.022225,0.231775 0.00318,0.01905 0.01905,0.034925 0.041275,0.034925 0.015875,0 0.0254,-0.00953 0.034925,-0.01905 0.136525,-0.142875 0.295275,-0.212725 0.492125,-0.212725 0.17145,0 0.22225,0.104775 0.22225,0.2921 v 0.111125 c -0.111125,0 -0.942975,0.00635 -0.942975,0.4730749 0,0.22225 0.1778,0.4572 0.4572,0.4572 0.10795,0 0.346075,-0.03175 0.4953,-0.250825 v 0.0635 c 0,0.1016 0.022225,0.1524 0.1524,0.1524 h 0.117475 c 0.12065,0 0.1524,-0.041275 0.1524,-0.1524 z m -0.4318,-0.33655 c 0,0.295275 -0.301625,0.295275 -0.31115,0.295275 -0.13335,0 -0.219075,-0.1143 -0.219075,-0.23495 0,-0.3111499 0.441325,-0.3333749 0.530225,-0.3365499 z"
         style="font-size:3.175px;font-family:'Latin Modern Sans';-inkscape-font-specification:'Latin Modern Sans, Bold';stroke-width:0.265"
         id="path311" />
      <path
         d="m 5.8240355,8.751126 c 0,-0.1777999 -0.09525,-0.2889249 -0.1524,-0.3397249 -0.127,-0.1143 -0.238125,-0.13335 -0.371475,-0.15875 -0.174625,-0.03175 -0.301625,-0.05715 -0.301625,-0.180975 0,-0.130175 0.104775,-0.155575 0.2286,-0.155575 0.212725,0 0.327025,0.079375 0.409575,0.149225 0.03175,0.03175 0.0381,0.03175 0.0508,0.03175 0.03175,0 0.0381,-0.028575 0.041275,-0.041275 0.00635,-0.0254 0.0381,-0.2032 0.0381,-0.219075 0,-0.0508 -0.168275,-0.09525 -0.2032,-0.10795 -0.127,-0.034925 -0.2286,-0.0381 -0.31115,-0.0381 -0.142875,0 -0.568325,0 -0.568325,0.454025 0,0.155575 0.06985,0.250825 0.155575,0.327025 0.111125,0.1016 0.23495,0.1238249 0.415925,0.1587499 0.092075,0.015875 0.254,0.04445 0.254,0.18415 0,0.149225 -0.123825,0.17145 -0.24765,0.17145 -0.1397,0 -0.3175,-0.041275 -0.466725,-0.219075 -0.015875,-0.015875 -0.0254,-0.0254 -0.04445,-0.0254 -0.03175,0 -0.0381,0.028575 -0.041275,0.047625 -0.00635,0.04445 -0.04445,0.225425 -0.04445,0.257175 0,0.05715 0.238125,0.13335 0.238125,0.13335 0.174625,0.053975 0.3048,0.053975 0.358775,0.053975 0.161925,0 0.561975,-0.0127 0.561975,-0.4826 z"
         style="font-size:3.175px;font-family:'Latin Modern Sans';-inkscape-font-specification:'Latin Modern Sans, Bold';stroke-width:0.265"
         id="path313" />
      <path
         d="m 7.1638883,8.751126 c 0,-0.1777999 -0.09525,-0.2889249 -0.1524,-0.3397249 -0.127,-0.1143 -0.238125,-0.13335 -0.371475,-0.15875 -0.174625,-0.03175 -0.301625,-0.05715 -0.301625,-0.180975 0,-0.130175 0.104775,-0.155575 0.2286,-0.155575 0.212725,0 0.327025,0.079375 0.409575,0.149225 0.03175,0.03175 0.0381,0.03175 0.0508,0.03175 0.03175,0 0.0381,-0.028575 0.041275,-0.041275 0.00635,-0.0254 0.0381,-0.2032 0.0381,-0.219075 0,-0.0508 -0.168275,-0.09525 -0.2032,-0.10795 -0.127,-0.034925 -0.2286,-0.0381 -0.31115,-0.0381 -0.142875,0 -0.568325,0 -0.568325,0.454025 0,0.155575 0.06985,0.250825 0.155575,0.327025 0.111125,0.1016 0.23495,0.1238249 0.415925,0.1587499 0.092075,0.015875 0.254,0.04445 0.254,0.18415 0,0.149225 -0.123825,0.17145 -0.24765,0.17145 -0.1397,0 -0.3175,-0.041275 -0.466725,-0.219075 -0.015875,-0.015875 -0.0254,-0.0254 -0.04445,-0.0254 -0.03175,0 -0.0381,0.028575 -0.041275,0.047625 -0.00635,0.04445 -0.04445,0.225425 -0.04445,0.257175 0,0.05715 0.238125,0.13335 0.238125,0.13335 0.174625,0.053975 0.3048,0.053975 0.358775,0.053975 0.161925,0 0.561975,-0.0127 0.561975,-0.4826 z"
         style="font-size:3.175px;font-family:'Latin Modern Sans';-inkscape-font-specification:'Latin Modern Sans, Bold';stroke-width:0.265"
         id="path315" />
    </g>
    <g
       aria-label="Mate"
       id="text2692"
       style="font-weight:bold;font-size:7.05556px;font-family:'Latin Modern Sans';-inkscape-font-specification:'Latin Modern Sans, Bold';fill:#3d3d3d;stroke-width:0.264999">
      <path
         d="M 6.7487125,7.0920301 V 4.7714552 c 0,-0.1241779 -0.027164,-0.1862668 -0.1862669,-0.1862668 h -0.325967 c -0.097014,0 -0.194028,0.00776 -0.2599975,0.166864 l -0.512234,1.2573015 c -0.081492,0.1979085 -0.2250724,0.55492 -0.2561169,0.6907396 h -0.00388 C 5.1693246,6.5603934 5.0102216,6.1762179 4.9287299,5.9705483 L 4.4320182,4.7442913 C 4.3660487,4.5851884 4.2418708,4.5851884 4.1720207,4.5851884 H 3.8499342 c -0.1397001,0 -0.1862669,0.042686 -0.1862669,0.1862668 v 2.3205749 c 0,0.1397001 0.042686,0.1862668 0.1862669,0.1862668 h 0.1047751 c 0.1474613,0 0.1862669,-0.050447 0.1862669,-0.1862668 V 5.0857806 h 0.00388 C 4.1875422,5.2604058 4.3621675,5.6911479 4.455301,5.920101 l 0.4501449,1.1059596 c 0.06985,0.166864 0.1629835,0.166864 0.2949226,0.166864 0.131939,0 0.2250724,0 0.2949225,-0.166864 L 5.9920033,5.8075647 C 6.0308089,5.7144313 6.2403591,5.1866751 6.267523,5.0857806 h 0.00388 v 2.0062495 c 0,0.1241779 0.027164,0.1862668 0.1862669,0.1862668 H 6.562445 c 0.1474613,0 0.1862669,-0.050447 0.1862675,-0.1862668 z"
         style="font-size:3.88056px;stroke-width:0.265"
         id="path300" />
      <path
         d="M 8.9451119,7.0920301 V 6.05204 c 0,-0.6131285 -0.5898451,-0.617009 -0.7838731,-0.617009 -0.1823863,0 -0.3764143,0.015522 -0.6364118,0.1241779 -0.081492,0.034925 -0.1008946,0.046567 -0.1008946,0.089253 0,0.027164 0.023283,0.2522364 0.027164,0.2832809 0.00388,0.023283 0.023283,0.042686 0.050447,0.042686 0.019403,0 0.031045,-0.011642 0.042686,-0.023283 0.166864,-0.1746252 0.360892,-0.2599976 0.6014867,-0.2599976 0.2095503,0 0.2716392,0.1280585 0.2716392,0.3570116 V 6.183979 c -0.1358196,0 -1.1525263,0.00776 -1.1525263,0.5782035 0,0.2716392 0.2173114,0.5588006 0.5588007,0.5588006 0.131939,0 0.422981,-0.038806 0.6053673,-0.3065642 v 0.077611 c 0,0.1241779 0.027164,0.1862668 0.1862669,0.1862668 H 8.758845 c 0.1474613,0 0.1862669,-0.050447 0.1862669,-0.1862666 z M 8.4173557,6.6806907 c 0,0.3608921 -0.3686532,0.3608921 -0.3802948,0.3608921 -0.1629836,0 -0.2677587,-0.1397002 -0.2677587,-0.2871614 0,-0.3802949 0.5393979,-0.4074588 0.6480535,-0.4113394 z"
         style="font-size:3.88056px;stroke-width:0.265"
         id="path302" />
      <path
         d="m 10.590468,7.0959106 c 0,-0.011642 -0.0078,-0.038806 -0.03104,-0.1202973 -0.0194,-0.077611 -0.02716,-0.1008946 -0.06209,-0.1008946 -0.0194,0 -0.02328,0.00388 -0.04657,0.027164 -0.04269,0.031044 -0.147461,0.1164168 -0.310444,0.1164168 -0.09313,0 -0.1513422,-0.06597 -0.1513422,-0.3220864 V 5.7804008 h 0.3453702 c 0.04657,0 0.186266,0 0.186266,-0.1397001 0,-0.1397002 -0.1397,-0.1397002 -0.186266,-0.1397002 H 9.9889808 V 5.178914 c 0,-0.1241779 -0.027164,-0.1862668 -0.1862669,-0.1862668 H 9.6824166 c -0.1397002,0 -0.1862669,0.042686 -0.1862669,0.1862668 v 0.3220865 h -0.089253 c -0.042686,0 -0.1862669,0 -0.1862669,0.1397002 0,0.1397001 0.1397002,0.1397001 0.1862669,0.1397001 h 0.077611 v 0.9817817 c 0,0.3919365 0.1397002,0.5588006 0.4074588,0.5588006 0.034925,0 0.2056695,0 0.4074595,-0.062089 0.06597,-0.019403 0.291042,-0.089253 0.291042,-0.1629835 z"
         style="font-size:3.88056px;stroke-width:0.265"
         id="path304" />
      <path
         d="m 12.569551,6.2693514 c 0,-0.5005923 -0.232834,-0.8343204 -0.811037,-0.8343204 -0.62089,0 -0.927454,0.3492504 -0.927454,0.9390955 0,0.6364118 0.368653,0.9468566 0.977901,0.9468566 0.147461,0 0.368653,-0.019403 0.62477,-0.1474613 0.08537,-0.042686 0.112536,-0.054328 0.112536,-0.1008945 0,-0.027164 -0.01164,-0.1397002 -0.01552,-0.1707447 -0.01552,-0.1202973 -0.0194,-0.1241779 -0.05433,-0.1241779 -0.01552,0 -0.02328,0 -0.06597,0.038806 -0.228953,0.1979086 -0.461787,0.2250725 -0.585965,0.2250725 -0.438503,0 -0.48507,-0.3453698 -0.496711,-0.5937257 h 1.055512 c 0.08925,0 0.186267,-0.00388 0.186267,-0.1785057 z m -0.430742,-0.027164 h -0.807157 c 0.01164,-0.2367141 0.08925,-0.5277561 0.426862,-0.5277561 0.310444,0 0.368653,0.2250725 0.380295,0.5277561 z"
         style="font-size:3.88056px;stroke-width:0.265"
         id="path306" />
    </g>
  </g>
</svg>
