<?xml version="1.0" encoding="UTF-8" standalone="no"?>
<!-- Created with Inkscape (http://www.inkscape.org/) -->

<svg
   width="46.436337"
   height="7.5742946"
   viewBox="0 0 12.286281 2.0040321"
   version="1.1"
   id="svg5"
   xmlns="http://www.w3.org/2000/svg"
   xmlns:svg="http://www.w3.org/2000/svg">
  <defs
     id="defs2" />
  <g
     id="layer1"
     transform="translate(-0.20419778,-5.5005908)">
    <g
       id="g533">
      <rect
         style="fill:#ffffff;fill-opacity:1;stroke-width:0.0242826"
         id="rect3040"
         width="1.300703"
         height="6.3187108"
         x="-7.5089788"
         y="3.8019843"
         transform="matrix(-0.00169845,-0.99999856,0.99999625,-0.00273916,0,0)" />
      <rect
         style="fill:#ffffff;fill-opacity:1;stroke-width:0.00591773"
         id="rect6834"
         width="1.3007106"
         height="0.37526736"
         x="-7.5031343"
         y="3.113575"
         transform="matrix(-0.00380449,-0.99999276,0.99999925,-0.00122284,0,0)" />
      <rect
         style="fill:#ffffff;fill-opacity:1;stroke-width:0.0124095"
         id="rect6888"
         width="1.3007026"
         height="1.6502168"
         x="-7.5081954"
         y="1.1476949"
         transform="matrix(-0.00149822,-0.99999888,0.99999518,-0.00310523,0,0)" />
      <path
         id="rect9068"
         style="fill:#ffffff;fill-opacity:1;stroke-width:0.013635"
         d="M 10.5402,7.4000614 10.5377,6.2610798 c 2.59217,0.6962583 2.614377,0.3759614 0.0025,1.1389816 z" />
      <rect
         style="fill:#ffffff;fill-opacity:1;stroke-width:0.00807733"
         id="rect10619"
         width="1.9203178"
         height="0.47356138"
         x="-7.5063305"
         y="1.1010832"
         transform="matrix(-0.00306268,-0.99999531,0.99999885,-0.00151904,0,0)" />
      <rect
         style="fill:#ffffff;fill-opacity:1;stroke-width:0.0104676"
         id="rect10621"
         width="0.35267237"
         height="4.330389"
         x="-5.8660378"
         y="1.1083106"
         transform="matrix(-0.00198237,-0.99999804,0.99999725,-0.00234685,0,0)" />
      <rect
         style="fill:#ffffff;fill-opacity:1;stroke-width:0.00636911"
         id="rect12095"
         width="0.8584004"
         height="0.65867966"
         x="-7.2854609"
         y="0.1902602"
         transform="matrix(-0.00216864,-0.99999765,0.99999786,-0.00206642,0,0)" />
    </g>
  </g>
</svg>
