<?xml version="1.0" encoding="UTF-8" standalone="no"?>
<!-- Created with Inkscape (http://www.inkscape.org/) -->

<svg
   width="48"
   height="48"
   viewBox="0 0 12.7 12.7"
   version="1.1"
   id="svg5"
   xmlns="http://www.w3.org/2000/svg"
   xmlns:svg="http://www.w3.org/2000/svg">
  <defs
     id="defs2" />
  <g
     id="layer1">
    <g
       id="g13384"
       transform="matrix(0.07943871,0,0,0.07943871,0.26507407,-6.7835114)">
      <g
         id="g13366"
         transform="translate(-0.84323153,-1.3564877)">
        <path
           id="rect3040"
           style="fill:#4033b8;stroke-width:0.115015"
           transform="matrix(0.99999993,-3.6835442e-4,8.9642826e-4,0.9999996,0,0)"
           d="m 92.031319,157.75581 h 5.811135 v 31.72935 h -5.811135 z" />
        <path
           id="rect6834"
           style="fill:#4033b8;stroke-width:0.0187279"
           transform="matrix(0.99999993,-3.6835442e-4,8.9642826e-4,0.9999996,0,0)"
           d="m 92.031319,156.43954 h 5.811135 v 0.84126 h -5.811135 z" />
        <path
           id="rect6888"
           style="fill:#4033b8;stroke-width:0.0625821"
           transform="matrix(0.99999993,-3.6835442e-4,8.9642826e-4,0.9999996,0,0)"
           d="m 92.031319,146.63013 h 5.811135 v 9.39401 h -5.811135 z" />
        <path
           id="rect9068"
           style="fill:#4033b8;fill-opacity:1;stroke-width:0.0650982"
           d="m 92.201711,190.04407 5.811137,-0.002 c -3.570174,11.57552 -1.936162,11.67725 -5.811137,0.002 z" />
        <path
           id="rect10619"
           style="fill:#4033b8;stroke-width:0.0274078"
           transform="matrix(0.99999993,-3.6835442e-4,8.9642826e-4,0.9999996,0,0)"
           d="m 92.031319,146.63013 h 8.253301 v 1.26863 h -8.253301 z" />
        <path
           id="rect10621"
           style="fill:#4033b8;stroke-width:0.0516013"
           transform="matrix(0.99999993,-3.6835442e-4,8.9642826e-4,0.9999996,0,0)"
           d="m 99.061974,146.63013 h 1.771646 v 20.94844 h -1.771646 z" />
        <path
           id="rect12095"
           style="fill:#4033b8;stroke-width:0.0284552"
           transform="matrix(0.9999998,-6.2800898e-4,5.2579401e-4,0.99999986,0,0)"
           d="m 93.073563,143.30768 h 3.835064 v 2.94277 h -3.835064 z" />
      </g>
      <g
         aria-label="Un is"
         transform="scale(0.91878264,1.0883967)"
         id="text13087"
         style="font-size:60.833px;fill:#1f1818;stroke-width:5.07739">
        <path
           d="M 12.379488,140.11168 H 6.7060982 v -3.17829 H 24.053008 v 3.17829 h -5.67339 v 22.93119 q 0,8.49523 2.762436,11.85174 2.79214,3.35651 9.594267,3.35651 6.802128,0 9.564564,-3.35651 2.79214,-3.35651 2.79214,-11.85174 v -22.93119 h -5.673391 v -3.17829 h 14.970622 v 3.17829 h -5.643687 v 23.52526 q 0,10.12893 -3.891173,14.31714 -3.891174,4.18821 -13.218108,4.18821 -9.326935,0 -13.307219,-4.21791 -3.950581,-4.21792 -3.950581,-14.28744 z"
           style="font-family:'DejaVu Serif';-inkscape-font-specification:'DejaVu Serif, Normal'"
           id="path307" />
        <path
           d="m 57.618091,181.28088 v -3.14858 h 4.9308 v -25.24807 h -5.227836 v -3.17829 h 10.693301 v 5.61399 q 1.514884,-3.20799 3.920877,-4.84169 2.435696,-1.6337 5.643686,-1.6337 5.227836,0 7.693236,3.00006 2.4654,3.00007 2.4654,9.35664 v 16.93106 h 4.871393 v 3.14858 H 77.519512 v -3.14858 h 4.722875 v -15.20825 q 0,-5.7922 -1.425774,-7.93086 -1.425773,-2.16837 -5.01991,-2.16837 -3.802063,0 -5.792205,2.79214 -1.990142,2.76244 -1.990142,8.07938 v 14.43596 h 4.752578 v 3.14858 z"
           style="font-family:'DejaVu Serif';-inkscape-font-specification:'DejaVu Serif, Normal'"
           id="path309" />
        <path
           d="m 119.55012,139.90375 q 0,-1.36637 0.98022,-2.37629 1.00993,-1.00992 2.406,-1.00992 1.36636,0 2.34658,1.00992 1.00992,1.00992 1.00992,2.37629 0,1.39607 -0.98022,2.37629 -0.98021,0.98022 -2.37628,0.98022 -1.39607,0 -2.406,-0.98022 -0.98022,-0.98022 -0.98022,-2.37629 z m 6.98035,38.22855 h 5.16843 v 3.14858 h -15.86173 v -3.14858 h 5.22784 v -25.24807 h -5.22784 v -3.17829 h 10.6933 z"
           style="font-family:'DejaVu Serif';-inkscape-font-specification:'DejaVu Serif, Normal'"
           id="path311" />
        <path
           d="m 136.51088,179.52837 v -7.3665 h 3.14859 q 0.11881,3.53473 2.19806,5.28725 2.10896,1.75251 6.20806,1.75251 3.68325,0 5.61398,-1.36637 1.93074,-1.39607 1.93074,-4.03969 0,-2.07925 -1.42578,-3.35651 -1.39607,-1.27725 -5.94072,-2.73273 l -3.95058,-1.33666 q -4.06939,-1.30696 -5.91102,-3.2674 -1.81192,-1.96044 -1.81192,-4.9902 0,-4.33673 3.17829,-6.80213 3.17828,-2.4654 8.79227,-2.4654 2.4951,0 5.25754,0.65348 2.76243,0.65348 5.70309,1.90103 v 6.89124 h -3.14858 q -0.11882,-3.05948 -2.13866,-4.78228 -2.01985,-1.72281 -5.49517,-1.72281 -3.44562,0 -5.22784,1.21784 -1.75251,1.21785 -1.75251,3.65355 0,1.99014 1.33666,3.20799 1.33667,1.18814 5.34665,2.43569 l 4.33673,1.33667 q 4.48525,1.39607 6.44568,3.50502 1.99015,2.07926 1.99015,5.37636 0,4.48524 -3.44562,7.06946 -3.41592,2.55451 -9.44575,2.55451 -3.05947,0 -5.97043,-0.65348 -2.91095,-0.65348 -5.82191,-1.96044 z"
           style="font-family:'DejaVu Serif';-inkscape-font-specification:'DejaVu Serif, Normal'"
           id="path313" />
      </g>
      <g
         aria-label="Geek"
         transform="scale(0.9455594,1.057575)"
         id="text13370"
         style="font-size:57.5212px;font-family:'DejaVu Serif';-inkscape-font-specification:'DejaVu Serif, Normal';fill:#4033b8;stroke-width:0.250572">
        <path
           d="m 20.115952,126.90057 q -0.469086,-2.06397 -1.563619,-2.98129 -1.094532,-0.92775 -3.085539,-0.92775 -2.418397,0 -3.554626,1.64701 -1.125805,1.63659 -1.125805,5.17036 0,3.50251 1.084109,5.15994 1.084108,1.64702 3.377415,1.64702 0.875626,0 1.626163,-0.19806 0.750537,-0.19806 1.36556,-0.59418 v -4.27389 h -1.876342 v -1.25089 h 5.608177 v 5.97302 q -1.751252,0.81308 -3.502505,1.2092 -1.740828,0.39611 -3.565049,0.39611 -4.002863,0 -6.2961693,-2.15779 -2.2828825,-2.15779 -2.2828825,-5.91048 0,-3.7631 2.2828825,-5.9209 2.2933063,-2.15779 6.2961693,-2.15779 1.667859,0 3.283598,0.33357 1.615739,0.33357 3.252326,1.01114 v 3.82565 z"
           style="font-weight:bold;font-size:21.3486px;-inkscape-font-specification:'DejaVu Serif, Bold';stroke-width:0.250573"
           id="path316" />
        <path
           d="m 32.218357,131.3204 q 0,-2.18906 -0.406541,-3.06469 -0.40654,-0.88605 -1.386408,-0.88605 -0.948595,0 -1.36556,0.8652 -0.406541,0.8652 -0.406541,2.89791 v 0.18763 z m 4.054983,1.24047 h -7.620033 v 0.0834 q 0,2.14736 0.646296,3.10638 0.646296,0.9486 2.084824,0.9486 1.198774,0 1.938887,-0.63587 0.740112,-0.63587 0.948595,-1.84507 h 1.730404 q -0.448237,1.88676 -1.782525,2.77281 -1.334287,0.88605 -3.731835,0.88605 -2.877058,0 -4.419828,-1.51149 -1.532345,-1.52192 -1.532345,-4.33644 0,-2.75197 1.574042,-4.29474 1.574042,-1.54277 4.378131,-1.54277 2.751968,0 4.221769,1.62617 1.469801,1.61574 1.563618,4.74297 z"
           style="font-weight:bold;font-size:21.3486px;-inkscape-font-specification:'DejaVu Serif, Bold';stroke-width:0.250573"
           id="path318" />
        <path
           d="m 45.800987,131.3204 q 0,-2.18906 -0.406541,-3.06469 -0.40654,-0.88605 -1.386408,-0.88605 -0.948595,0 -1.36556,0.8652 -0.40654,0.8652 -0.40654,2.89791 v 0.18763 z m 4.054983,1.24047 h -7.620032 v 0.0834 q 0,2.14736 0.646295,3.10638 0.646296,0.9486 2.084824,0.9486 1.198774,0 1.938887,-0.63587 0.740113,-0.63587 0.948595,-1.84507 h 1.730404 q -0.448237,1.88676 -1.782525,2.77281 -1.334287,0.88605 -3.731835,0.88605 -2.877057,0 -4.419827,-1.51149 -1.532346,-1.52192 -1.532346,-4.33644 0,-2.75197 1.574042,-4.29474 1.574042,-1.54277 4.378131,-1.54277 2.751968,0 4.221769,1.62617 1.469801,1.61574 1.563618,4.74297 z"
           style="font-weight:bold;font-size:21.3486px;-inkscape-font-specification:'DejaVu Serif, Bold';stroke-width:0.250573"
           id="path320" />
        <path
           d="m 58.216116,137.57487 h -6.661014 v -1.26131 h 1.574043 v -13.70772 h -1.574043 v -1.2509 h 5.264181 v 10.4137 l 4.471948,-4.01329 h -1.323863 v -1.26132 h 5.055699 v 1.26132 h -2.053552 l -2.856209,2.56434 4.670006,5.99387 h 1.198774 v 1.26131 h -6.358714 v -1.26131 h 1.303015 l -3.075116,-3.95075 -1.031988,0.91733 v 3.03342 h 1.396833 z"
           style="font-weight:bold;font-size:21.3486px;-inkscape-font-specification:'DejaVu Serif, Bold';stroke-width:0.250573"
           id="path322" />
      </g>
    </g>
  </g>
</svg>
