<?xml version="1.0" encoding="UTF-8" standalone="no"?>
<!-- Created with Inkscape (http://www.inkscape.org/) -->

<svg
   width="48"
   height="48"
   viewBox="0 0 12.7 12.7"
   version="1.1"
   id="svg5"
   xmlns="http://www.w3.org/2000/svg"
   xmlns:svg="http://www.w3.org/2000/svg">
  <defs
     id="defs2" />
  <g
     id="layer1">
    <g
       id="g533"
       transform="matrix(0,0.55286005,-0.55286005,0,12.450577,2.7404339)"
       style="fill:#1a5d8f;fill-opacity:1">
      <path
         id="rect3040"
         style="stroke-width:0.0242826"
         transform="matrix(-0.00169845,-0.99999856,0.99999625,-0.00273916,0,0)"
         d="m -7.5089788,3.8019843 h 1.300703 v 6.3187107 h -1.300703 z" />
      <path
         id="rect6834"
         style="stroke-width:0.00591773"
         transform="matrix(-0.00380449,-0.99999276,0.99999925,-0.00122284,0,0)"
         d="m -7.5031343,3.113575 h 1.3007106 v 0.3752673 h -1.3007106 z" />
      <path
         id="rect6888"
         style="stroke-width:0.0124095"
         transform="matrix(-0.00149822,-0.99999888,0.99999518,-0.00310523,0,0)"
         d="m -7.5081954,1.1476949 h 1.3007026 v 1.6502169 h -1.3007026 z" />
      <path
         id="rect9068"
         style="fill:#1a5d8f;fill-opacity:1;stroke-width:0.013635"
         d="M 10.5402,7.4000614 10.5377,6.2610798 c 2.59217,0.6962583 2.614377,0.3759614 0.0025,1.1389816 z" />
      <path
         id="rect10619"
         style="stroke-width:0.00807733"
         transform="matrix(-0.00306268,-0.99999531,0.99999885,-0.00151904,0,0)"
         d="m -7.5063305,1.1010832 h 1.9203178 v 0.4735613 h -1.9203178 z" />
      <path
         id="rect10621"
         style="stroke-width:0.0104676"
         transform="matrix(-0.00198237,-0.99999804,0.99999725,-0.00234685,0,0)"
         d="m -5.8660378,1.1083106 h 0.3526723 v 4.330389 h -0.3526723 z" />
      <path
         id="rect12095"
         style="stroke-width:0.00636911"
         transform="matrix(-0.00216864,-0.99999765,0.99999786,-0.00206642,0,0)"
         d="m -7.2854609,0.1902602 h 0.8584004 v 0.65867967 h -0.8584004 z" />
    </g>
    <g
       aria-label="Geek"
       id="text2638"
       style="font-weight:bold;font-size:21.823px;font-family:'DejaVu Serif';-inkscape-font-specification:'DejaVu Serif, Bold';fill:#1a5d8f;stroke-width:0.264999">
      <path
         d="M 2.2825918,5.8533242 V 4.9290458 c 0,-0.024694 -0.017639,-0.045861 -0.042333,-0.045861 H 1.510008 c -0.024694,0 -0.042333,0.021167 -0.042333,0.045861 v 0.2434168 c 0,0.024694 0.017639,0.045861 0.042333,0.045861 H 1.8028138 V 5.676935 C 1.6934526,5.70163 1.5805636,5.715741 1.4676747,5.715741 1.2489523,5.715741 1.0302299,5.655769 0.88911872,5.4934909 0.73036862,5.3065185 0.69509082,5.0525184 0.69509082,4.8055738 c 0,-0.2469446 0.0352778,-0.5009448 0.1940279,-0.6879171 C 1.0302299,3.951851 1.2489523,3.8918787 1.4676747,3.8918787 c 0.1199445,0 0.239889,0.017639 0.3492502,0.0635 0.1128889,0.045861 0.208139,0.1234723 0.2928057,0.208139 0.00706,0.00706 0.017639,0.014111 0.03175,0.014111 0.021167,0 0.038806,-0.017639 0.042333,-0.038806 l 0.067028,-0.3739446 c 0,-0.024695 -0.010583,-0.042333 -0.024694,-0.049389 C 2.1097306,3.659045 1.9862583,3.609656 1.8557305,3.5814338 1.7287304,3.5496838 1.5982025,3.5391004 1.4676747,3.5391004 c -0.3527781,0 -0.7161394,0.074083 -0.96661178,0.3175002 -0.24694461,0.2434169 -0.32455577,0.5997226 -0.32455577,0.9489729 0,0.3457224 0.0776112,0.7020282 0.32455577,0.945445 0.25047238,0.2469446 0.61383368,0.3175002 0.96661178,0.3175002 0.271639,0 0.5432781,-0.059972 0.7902227,-0.176389 0.014111,-0.00706 0.024694,-0.021167 0.024694,-0.038805 z"
         style="font-size:3.52778px;font-family:'Latin Modern Sans';-inkscape-font-specification:'Latin Modern Sans, Bold';stroke-width:0.265"
         id="path560" />
      <path
         d="m 4.2369814,5.1124903 c 0,-0.4550836 -0.2116668,-0.7584727 -0.7373061,-0.7584727 -0.5644448,0 -0.8431394,0.3175002 -0.8431394,0.8537228 0,0.5785559 0.3351391,0.8607783 0.8890006,0.8607783 0.1340556,0 0.3351391,-0.017639 0.5679726,-0.1340556 0.077611,-0.038806 0.1023056,-0.049389 0.1023056,-0.091722 0,-0.024694 -0.010583,-0.1270001 -0.014111,-0.1552223 -0.014111,-0.1093612 -0.017639,-0.112889 -0.049389,-0.112889 -0.014111,0 -0.021167,0 -0.059972,0.035278 -0.208139,0.1799168 -0.4198058,0.2046113 -0.5326948,0.2046113 -0.3986391,0 -0.4409725,-0.3139725 -0.4515558,-0.5397504 h 0.9595561 c 0.081139,0 0.1693335,-0.00353 0.1693332,-0.1622784 z M 3.8453978,5.0877959 H 3.1116195 c 0.010583,-0.2151946 0.081139,-0.4797781 0.3880558,-0.4797781 0.2822224,0 0.3351391,0.2046112 0.3457225,0.4797781 z"
         style="font-size:3.52778px;font-family:'Latin Modern Sans';-inkscape-font-specification:'Latin Modern Sans, Bold';stroke-width:0.265"
         id="path562" />
      <path
         d="m 6.0396757,5.1124903 c 0,-0.4550836 -0.2116668,-0.7584727 -0.737306,-0.7584727 -0.5644448,0 -0.8431395,0.3175002 -0.8431395,0.8537228 0,0.5785559 0.3351391,0.8607783 0.8890006,0.8607783 0.1340556,0 0.3351391,-0.017639 0.5679726,-0.1340556 0.077611,-0.038806 0.1023056,-0.049389 0.1023056,-0.091722 0,-0.024694 -0.010583,-0.1270001 -0.014111,-0.1552223 -0.014111,-0.1093612 -0.017639,-0.112889 -0.049389,-0.112889 -0.014111,0 -0.021167,0 -0.059972,0.035278 -0.208139,0.1799168 -0.4198058,0.2046113 -0.5326948,0.2046113 -0.3986391,0 -0.4409725,-0.3139725 -0.4515558,-0.5397504 h 0.9595562 c 0.081139,0 0.1693334,-0.00353 0.1693331,-0.1622784 z M 5.6480921,5.0877959 H 4.9143139 c 0.010583,-0.2151946 0.081139,-0.4797781 0.3880558,-0.4797781 0.2822224,0 0.3351391,0.2046112 0.3457224,0.4797781 z"
         style="font-size:3.52778px;font-family:'Latin Modern Sans';-inkscape-font-specification:'Latin Modern Sans, Bold';stroke-width:0.265"
         id="path564" />
      <path
         d="m 7.9058701,5.952102 c 0,0 0,-0.03175 -0.035278,-0.077611 L 7.2567585,5.070157 7.8000367,4.5656844 c 0.042333,-0.038806 0.052917,-0.049389 0.052917,-0.077611 0,-0.074083 -0.070556,-0.074083 -0.1199446,-0.074083 H 7.5283976 c -0.0635,0 -0.1305279,0 -0.2116668,0.074083 L 6.8087305,4.9607958 V 3.7507672 c 0,-0.1128889 -0.024694,-0.1693334 -0.1693335,-0.1693334 H 6.565314 c -0.127,0 -0.1693334,0.038806 -0.1693334,0.1693334 v 2.1096125 c 0,0.1270001 0.038806,0.1693335 0.1693334,0.1693335 h 0.0635 c 0.1340556,0 0.1693334,-0.045861 0.1693334,-0.1693335 V 5.4934906 C 6.8545916,5.4441017 6.9075083,5.391185 6.9639528,5.341796 l 0.4586114,0.5997227 c 0.059972,0.077611 0.084667,0.088195 0.1869723,0.088195 H 7.77887 c 0.049389,0 0.1270001,0 0.1270001,-0.077612 z"
         style="font-size:3.52778px;font-family:'Latin Modern Sans';-inkscape-font-specification:'Latin Modern Sans, Bold';stroke-width:0.265"
         id="path566" />
    </g>
    <g
       aria-label="Un is"
       id="text2692"
       style="font-weight:bold;font-size:7.05556px;font-family:'Latin Modern Sans';-inkscape-font-specification:'Latin Modern Sans, Bold';fill:#3d3d3d;stroke-width:0.264999">
      <path
         d="M 4.8841343,8.5624841 V 6.6500762 c 0,-0.1467555 -0.032103,-0.2201333 -0.2201333,-0.2201333 H 4.4805566 c -0.1742722,0 -0.2201333,0.059619 -0.2201333,0.2201333 v 1.9215801 c 0,0.4494388 -0.1329972,0.747536 -0.6925026,0.747536 -0.5319888,0 -0.6741582,-0.2705805 -0.6741582,-0.7429499 V 6.6500762 c 0,-0.1467555 -0.032103,-0.2201333 -0.2201333,-0.2201333 H 2.4397376 c -0.1651,0 -0.2201333,0.050447 -0.2201333,0.2201333 V 8.557898 c 0,0.9676692 0.7612943,1.1556997 1.3437303,1.1556997 0.5228165,0 1.3207997,-0.1559277 1.3207997,-1.1511136 z"
         style="font-size:4.58611px;stroke-width:0.265"
         id="path569" />
      <path
         d="M 7.5991111,9.39257 V 8.1222175 c 0,-0.4723693 -0.2017889,-0.6603998 -0.6695721,-0.6603998 -0.4815416,0 -0.6879165,0.3485443 -0.7475359,0.4723693 h -0.00459 V 7.7048815 c 0,-0.1467555 -0.032103,-0.2201333 -0.2201332,-0.2201333 h -0.155924 c -0.1650999,0 -0.2201333,0.050447 -0.2201333,0.2201333 V 9.39257 c 0,0.1651 0.050447,0.2201333 0.2201333,0.2201333 h 0.1834444 c 0.1742722,0 0.2201333,-0.059619 0.2201333,-0.2201333 V 8.3790397 c 0,-0.3989916 0.2659944,-0.5870221 0.5044721,-0.5870221 0.2201333,0 0.2659944,0.1054805 0.2659944,0.3393722 V 9.39257 c 0,0.1467556 0.032103,0.2201333 0.2201333,0.2201333 h 0.1834444 c 0.1742722,0 0.2201333,-0.059619 0.2201333,-0.2201333 z"
         style="font-size:4.58611px;stroke-width:0.265"
         id="path571" />
      <path
         d="M 10.451678,9.39257 V 7.7323982 c 0,-0.1467555 -0.0321,-0.2201333 -0.220133,-0.2201333 h -0.169686 c -0.1651001,0 -0.2201334,0.050447 -0.2201334,0.2201333 V 9.39257 c 0,0.1651 0.050447,0.2201333 0.2201334,0.2201333 h 0.169686 c 0.174272,0 0.220133,-0.059619 0.220133,-0.2201333 z m 0.0321,-2.5590494 v -0.087136 c 0,-0.1467555 -0.0321,-0.2201333 -0.220133,-0.2201333 h -0.233892 c -0.1742721,0 -0.2201332,0.059619 -0.2201332,0.2201333 v 0.087136 c 0,0.1329972 0.022931,0.2201333 0.2201332,0.2201333 h 0.233892 c 0.192616,0 0.220133,-0.08255 0.220133,-0.2201333 z"
         style="font-size:4.58611px;stroke-width:0.265"
         id="path573" />
      <path
         d="m 12.552119,8.9660618 c 0,-0.2568222 -0.137583,-0.417336 -0.220133,-0.4907138 C 12.148541,8.3102481 11.988027,8.2827314 11.795411,8.2460425 11.543175,8.2001814 11.35973,8.1634925 11.35973,7.9846342 c 0,-0.1880305 0.151342,-0.2247194 0.3302,-0.2247194 0.30727,0 0.47237,0.1146528 0.591608,0.2155472 0.04586,0.045861 0.05503,0.045861 0.07338,0.045861 0.04586,0 0.05503,-0.041275 0.05962,-0.059619 0.0092,-0.036689 0.05503,-0.2935111 0.05503,-0.3164416 0,-0.073378 -0.243064,-0.1375833 -0.293511,-0.1559278 -0.183444,-0.050447 -0.3302,-0.055033 -0.449439,-0.055033 -0.206375,0 -0.820914,0 -0.820914,0.6558138 0,0.2247194 0.100895,0.3623027 0.22472,0.4723693 0.160514,0.1467555 0.339372,0.1788583 0.60078,0.2293055 0.132997,0.022931 0.366889,0.064206 0.366889,0.2659944 0,0.2155472 -0.178858,0.2476499 -0.357717,0.2476499 -0.201788,0 -0.458611,-0.059619 -0.674158,-0.3164416 -0.02293,-0.02293 -0.03669,-0.036689 -0.0642,-0.036689 -0.04586,0 -0.05503,0.041275 -0.05962,0.068792 -0.0092,0.064206 -0.0642,0.3256138 -0.0642,0.3714749 0,0.08255 0.343958,0.1926167 0.343958,0.1926167 0.252236,0.077964 0.440267,0.077964 0.51823,0.077964 0.233892,0 0.811742,-0.018344 0.811742,-0.6970887 z"
         style="font-size:4.58611px;stroke-width:0.265"
         id="path575" />
    </g>
  </g>
</svg>
